<?xml version="1.0" encoding="UTF-8" standalone="no"?>

<svg
   height="800"
   width="800"
   version="1.1"
   id="Layer_1"
   viewBox="0 0 504.8 504.8"
   xml:space="preserve"
   sodipodi:docname="uniffle.svg"
   inkscape:version="1.2.2 (b0a84865, 2022-12-01)"
   inkscape:export-filename="uniffle.png"
   inkscape:export-xdpi="96"
   inkscape:export-ydpi="96"
   xmlns:inkscape="http://www.inkscape.org/namespaces/inkscape"
   xmlns:sodipodi="http://sodipodi.sourceforge.net/DTD/sodipodi-0.dtd"
   xmlns="http://www.w3.org/2000/svg"
   xmlns:svg="http://www.w3.org/2000/svg"><defs
   id="defs27"><rect
     x="996.02661"
     y="144.00385"
     width="1197.6508"
     height="435.15445"
     id="rect324" /></defs><sodipodi:namedview
   id="namedview25"
   pagecolor="#ffffff"
   bordercolor="#000000"
   borderopacity="0.25"
   inkscape:showpageshadow="2"
   inkscape:pageopacity="0.0"
   inkscape:pagecheckerboard="0"
   inkscape:deskcolor="#d1d1d1"
   showgrid="false"
   inkscape:zoom="0.38200988"
   inkscape:cx="727.72987"
   inkscape:cy="375.64473"
   inkscape:window-width="1313"
   inkscape:window-height="761"
   inkscape:window-x="280"
   inkscape:window-y="1478"
   inkscape:window-maximized="0"
   inkscape:current-layer="Layer_1"
   showguides="true" />
<g
   id="g6"
   style="fill:#fcf29d;fill-opacity:1"
   transform="translate(0,2.524)">
	<path
   style="fill:#fcf29d;fill-opacity:1"
   d="m 166,202.25 -40,-39.6 c -6.8,-6.8 -15.6,-10 -25.2,-10 l -76,3.2 v 0 c -12,0 -20.8,6.8 -20.8,19.6 v 23.6 c 0,13.2 8,23.6 20,23.6 v -2 h 62 l 29.6,30.8 z"
   id="path2" />
	<path
   style="fill:#fcf29d;fill-opacity:1"
   d="m 166,303.05 103.2,103.2 c 6.8,6.8 15.6,10.4 25.2,10.4 H 372 v 0.4 l -18.8,20 c -9.2,9.2 -8.4,24 0.8,33.2 l 16.8,16.4 c 9.2,9.2 24.4,9.2 33.6,0 l 89.2,-88.8 c 4.8,-4.4 6.8,-10.8 6.8,-16.8 0,-6 -2.4,-12 -6.8,-16.8 l -93.2,-92.8 c -9.2,-9.2 -24.4,-9.2 -33.6,0 l -16.4,16.4 c -9.2,9.2 -9.2,23.6 0,32.8 l 23.6,23.2 h -65.6 l -92.8,-92.4 z"
   id="path4" />
</g>
<path
   style="fill:#ffff8d;fill-opacity:1"
   d="m 480,378.65 c 0.8,0.8 1.2,2 1.2,2.8 0,0.8 0,1.6 -1.2,2.8 l -89.2,88.8 c -0.8,0.8 -2.4,1.2 -2.8,1.2 -0.4,0 -2,0 -2.8,-1.2 l -16.4,-16.4 c -0.8,-0.8 -1.2,-2 -1.2,-2.8 0,-0.8 0,-1.6 1.2,-2.8 l 18.8,-20 c 3.6,-3.6 4.4,-8.8 4.4,-14 v -0.4 c 0,-10.8 -6,-20 -17.2,-20 H 294 c -4,0 -8.4,-1.6 -11.2,-4.4 l -88.4,-88.4 22.8,-21.6 77.6,77.2 c 3.6,3.6 8.8,5.6 14,5.6 h 65.6 c 8,0 15.2,-4.4 18.4,-12 3.2,-7.6 1.2,-15.6 -4.4,-21.2 l -23.6,-23.6 c -0.8,-0.8 -1.2,-2 -1.2,-2.8 0,-0.8 0,-1.6 1.2,-2.8 l 16.4,-16.4 c 0.8,-0.8 2.4,-1.2 2.8,-1.2 0.8,0 2,0 2.8,1.2 z M 99.6,172.25 c 4,0 8.8,1.6 11.6,4.4 l 26.4,26 -22.8,20.8 -14.4,-15.6 c -3.6,-3.6 -8.8,-7.2 -14,-7.2 H 29.2 c -0.8,0 -2.8,1.2 -3.2,1.2 -2,0 -5.2,-0.4 -5.2,-2.8 v -23.6 c 0,-2 3.2,-3.6 5.2,-3.6 0.8,0 3.2,0.4 4,0.4 h 70.4"
   id="path8" />
<path
   style="fill:#e29674;fill-opacity:1"
   d="m 494,108.312 -89.2,-88.8 c -9.2,-9.2 -24.4,-9.2 -33.6,0 l -16.4,16.4 c -9.2,9.2 -10.8,24 -1.6,33.2 l 18.8,20 v 0.4 h -77.6 c -9.6,0 -18.4,2.8 -25.2,9.6 L 86,281.512 H 24 v 1.6 c -12,0 -20,10.8 -20,23.6 v 23.6 c 0,13.2 8,23.6 20,23.6 v 0 h 76.8 c 9.6,0 18.4,-2.8 25.2,-9.6 l 183.2,-182.4 h 65.6 l -23.6,23.2 c -9.2,9.2 -9.2,24 0,33.2 l 16.4,16.4 c 9.2,9.2 24.4,9.2 33.6,0 l 93.2,-92.8 c 4.8,-4.4 6.8,-10.8 6.8,-16.8 0,-6 -2.4,-12 -7.2,-16.8 z"
   id="path10" />
<path
   style="fill:#d3622e;fill-opacity:1"
   d="M 100,333.912 H 29.6 c -0.8,0 -3.2,0.4 -4,0.4 -2,0 -5.2,-1.2 -5.2,-3.6 v -23.6 c 0,-2 3.2,-4.8 5.2,-4.8 0.8,0 2.8,-0.8 3.2,-0.8 H 86 c 5.2,0 10.4,-1.2 14,-5.2 l 183.2,-182.8 c 2.8,-2.8 7.2,-4 11.2,-4 h 80.8 c 10.8,0 17.2,-9.2 17.2,-20 v -0.4 c 0,-5.2 -0.8,-10.4 -4.4,-14 l -19.6,-20 c -0.8,-0.8 -0.8,-2 -0.8,-2.8 0,-0.8 0.4,-1.6 1.2,-2.8 l 16.8,-16.4 c 0.8,-0.8 2.4,-1.2 2.8,-1.2 0.8,0 2,0 2.8,1.2 l 89.2,88.8 c 0.8,0.8 1.2,2 1.2,2.8 0,0.8 0,2 -1.2,2.8 l -93.2,92.8 c -0.8,0.8 -2.4,1.2 -2.8,1.2 -0.8,0 -2,0 -2.8,-1.2 l -16.4,-16.4 c -0.8,-0.8 -1.2,-2 -1.2,-2.8 0,-0.8 0,-1.6 1.2,-2.8 l 23.6,-23.6 c 5.6,-5.6 7.2,-14 4.4,-21.2 -3.2,-7.2 -10.4,-12 -18.4,-12 h -65.6 c -5.2,0 -10.4,1.6 -14,5.6 L 112,330.312 c -2.8,2.8 -8,4 -12,4"
   id="path12" />
<path
   d="m 115.6,257.45 c -1.2,0 -2,-0.4 -2.8,-1.2 L 84.4,228.65 H 24 c -15.2,0 -24,-14.8 -24,-29.6 v -23.6 c 0,-14.4 8.8,-23.2 24,-23.2 h 76.8 c 8.8,0 20,1.2 28,9.2 l 40,39.2 c 1.6,1.6 1.6,4 0,5.6 -1.6,1.6 -4,1.6 -5.6,0 l -40,-39.2 c -4.8,-4.8 -11.6,-6.8 -22.4,-6.8 H 24 c -10.8,0 -16,5.2 -16,15.2 v 23.6 c 0,10.4 6,21.6 16,21.6 h 62 c 1.2,0 2,0.4 2.8,1.2 l 29.6,28.8 c 1.6,1.6 1.6,4 0,5.6 -0.8,0.8 -1.6,1.2 -2.8,1.2 z"
   id="path14" />
<path
   d="m 388,497.85 c -7.2,0 -14,-2.8 -19.6,-8 L 352,473.45 c -5.6,-5.6 -8.8,-13.2 -8.8,-20.8 0,-6.8 2.8,-13.2 7.2,-18 l 11.2,-9.6 h -67.2 c -12.4,0 -22.8,-8.4 -28,-13.6 l -102,-102.4 c -1.6,-1.6 -1.6,-4 0,-5.6 1.6,-1.6 4,-1.6 5.6,0 l 102,102.4 c 4,4 12.8,11.2 22.4,11.2 H 372 c 1.6,0 3.2,1.2 3.6,2.4 0.4,1.6 0,3.2 -1.2,4.4 l -18.8,16.4 c -4,4 -4.8,8.8 -4.8,12.4 0,5.6 2.4,11.2 6.4,15.2 l 16.4,16.4 c 7.6,7.6 20.4,7.6 28,0 l 89.2,-88.8 c 3.6,-3.6 5.6,-8.8 5.6,-14 0,-5.2 -2,-10 -5.6,-14 l -93.2,-92.4 c -7.6,-7.6 -20,-7.6 -28,0 l -16.4,16.8 c -3.6,3.6 -5.6,8.8 -5.6,14.4 0,5.6 2,10.8 5.6,14.4 l 24,25.2 c 1.2,1.2 1.2,2.8 0.8,4.4 -0.8,1.6 -2,2.4 -3.6,2.4 h -65.6 c -1.2,0 -2,-0.4 -2.8,-1.2 l -91.2,-92.4 c -1.6,-1.6 -1.6,-4 0,-5.6 1.6,-1.6 4,-1.6 5.6,0 l 90,91.6 h 54.4 l -17.6,-18.4 c -5.2,-5.2 -8,-12.4 -8,-20 0,-7.6 2.8,-14.8 8,-20 l 16.4,-16.8 c 10.8,-10.8 28.4,-10.8 39.2,-0.4 l 93.2,92.4 c 5.2,5.2 8,12 8,19.6 0,7.2 -2.8,14.4 -8,19.6 l -89.2,88.8 c -4.4,5.2 -11.6,8 -18.8,8 z"
   id="path16" />
<path
   d="m 388,477.85 c -2,0 -4,-0.8 -5.6,-2.4 L 366,459.05 c -1.6,-1.6 -2.4,-3.6 -2.4,-5.6 0,-2 0.8,-4 2.4,-5.6 l 18.8,-20 c 2.4,-2.4 3.2,-5.6 3.2,-11.2 0,-8.4 -4,-12.4 -13.2,-12.4 H 294 c -5.6,0 -10.4,-4 -14,-7.6 l -88.4,-89.6 c -1.6,-1.6 -1.6,-4 0,-5.6 1.6,-1.6 4,-1.6 5.6,0 l 88.4,89.6 c 1.2,1.2 5.2,5.2 8.4,5.2 h 80.8 c 13.6,0 21.2,7.2 21.2,20 0,5.6 -0.8,12.4 -5.6,17.2 l -18.8,20 16.4,16 89.2,-88.8 -62.4,-62 c -1.6,-1.6 -1.6,-4 0,-5.6 1.6,-1.6 4,-1.6 5.6,0 l 62.4,62 c 1.2,1.2 2.4,2.8 2.4,5.6 0,2 -0.8,4 -2.4,5.6 l -89.2,88.8 c -1.2,2 -3.6,2.8 -5.6,2.8 z m -13.6,-105.2 h -65.6 c -5.6,0 -11.2,-2.8 -16.8,-8.8 l -77.6,-79.2 c -1.6,-1.6 -1.6,-4 0,-5.6 1.6,-1.6 4,-1.6 5.6,0 l 77.6,79.2 c 4,4 8,6.4 11.2,6.4 h 65.6 c 6.4,0 12.4,-5.6 14.4,-11.6 2.4,-6 1.2,-13.6 -3.6,-18 l -24,-24 c -1.6,-1.6 -2.4,-3.6 -2.4,-5.6 0,-2 0.8,-4 2.4,-5.6 l 16.4,-16.4 c 2.8,-2.8 8.4,-2.8 11.2,0 l 10,9.6 c 1.6,1.6 1.6,4 0,5.6 -1.6,1.6 -4,1.6 -5.6,0 l -10,-9.6 -16.8,16.4 24,24 c 6.8,6.8 8.8,17.6 5.2,26.8 -2.4,8 -10.4,16.4 -21.2,16.4 z M 114,230.25 c -1.2,0 -2,-0.4 -2.8,-1.2 l -14,-14.8 c -2,-2 -6,-5.2 -10.8,-5.2 H 29.2 c -10.4,0 -12.8,-5.2 -12.8,-9.6 v -22.8 c 0,-4.4 3.6,-7.6 8,-7.6 0.8,0 5.2,0 5.2,0 h 70.8 c 6.4,0 11.6,1.6 14.8,4.8 l 26,26 c 1.6,1.6 1.6,4 0,5.6 -1.6,1.6 -4,1.6 -5.6,0 l -26,-26 c -1.6,-1.6 -4.8,-2.4 -9.2,-2.4 H 30 c 0,0 -4.8,0.4 -5.6,0.4 v 0 22.4 c 0,0.4 0,0.8 0,0.8 v 0 c 0,0 0.8,0.8 4.8,0.8 h 57.2 c 6,0 11.6,2.8 16.8,7.6 l 14,15.2 c 1.6,1.6 1.6,4 0,5.6 -1.2,0 -2.4,0.4 -3.2,0.4 z"
   id="path18" />
<path
   d="M 100.8,360.65 H 24 c -14.4,0 -24,-16 -24,-31.2 v -23.6 c 0,-15.2 9.6,-25.6 24,-25.6 h 60.4 l 182,-181.2 c 7.2,-7.2 16.8,-10.8 28,-10.8 H 364 l -13.6,-18 c -4.8,-4.8 -7.2,-11.2 -7.2,-18 0,-7.6 3.2,-15.2 8.8,-20.8 l 16.4,-16.4 c 10.8,-10.8 28.4,-10.8 39.2,0 l 89.2,88.8 v 0 c 5.2,5.2 8,12.4 8,19.6 0,7.2 -2.8,14.4 -8,19.6 l -93.2,92.8 c -10.8,10.8 -28.4,10.8 -39.2,0.4 l -16.4,-16 c -5.2,-5.2 -8,-12 -8,-18.8 0,-6.8 2.8,-13.6 8,-18.8 l 16,-14.4 h -53.2 l -182,181.2 c -7.2,7.6 -16.8,11.2 -28,11.2 z m -76.8,-72 c -10,0 -16,6.8 -16,17.6 v 23.6 c 0,10.8 6.4,23.2 16,23.2 h 76.8 c 6.4,0 15.2,-1.6 22.4,-8.4 l 183.2,-182.4 c 0.8,-0.8 1.6,-1.2 2.8,-1.2 h 65.6 c 1.6,0 3.2,1.2 3.6,2.4 0.4,1.2 0,3.2 -1.2,4.4 l -23.6,21.2 c -3.6,3.6 -5.6,8.4 -5.6,13.2 0,4.8 2,9.6 5.6,13.2 l 16.4,16 c 7.6,7.6 20,7.6 28,-0.4 l 93.2,-92.8 c 3.6,-3.6 5.6,-8.8 5.6,-14 0,-5.2 -2,-10.4 -5.6,-14 L 402,21.45 c -7.6,-7.6 -20.4,-7.6 -28,0 l -16.4,16.4 c -4,4 -6.4,9.6 -6.4,15.2 0,3.2 0.8,8.4 5.2,12.4 l 0.4,0.4 18.8,24.4 c 0.8,1.2 1.2,2.8 0.4,4.4 -0.8,1.2 -2,2.4 -3.6,2.4 h -77.6 c -6.4,0 -15.2,1.6 -22.4,8.4 L 89.2,287.85 c -0.8,0.8 -1.6,1.2 -2.8,1.2 H 24 Z"
   id="path20" />
<path
   d="M 100,340.65 H 23.2 c -4,0 -7.2,-3.6 -7.2,-8 v -24 c 0,-4.4 3.2,-7.6 7.6,-7.6 0.4,0 1.6,0 2.4,0 1.2,0 2.4,0 2.8,0 H 86 c 4.4,0 8.8,-3.6 11.2,-6 l 183.2,-181.6 c 4,-4 9.2,-4.4 14,-4.4 h 80.8 c 8.4,0 13.2,-11.6 13.2,-20 0,-6 -0.8,-9.2 -3.2,-11.6 l -19.6,-20.4 c -2,-2 -2,-4.4 -2,-5.2 0,-2 0.8,-4 2.4,-5.6 l 16.8,-16.4 c 2,-2 4.4,-2.4 5.6,-2.4 1.2,0 3.6,0.4 5.6,2.4 0,0 0,0.4 0.4,0.4 l 7.6,9.2 c 1.2,1.6 1.2,4.4 -0.4,5.6 -1.6,1.2 -4.4,1.2 -5.6,-0.4 l -7.2,-8.8 -16.8,16.4 19.2,19.6 c 4.8,4.8 5.6,11.6 5.6,16.8 0,13.6 -8,28.4 -21.2,28.4 h -80.8 c -4,0 -6.8,0.4 -8.4,2 l -183.2,181.6 c -3.6,3.6 -9.6,8.4 -16.8,8.4 H 29.2 c -0.4,0 -1.2,0 -2.4,0 -0.8,0 -1.6,0 -2.4,0 v 23.6 0 h 76 c 2.4,0 6,-2 9.2,-5.2 l 183.2,-182 c 4.8,-4.8 10.8,-4.8 16,-4.8 h 66.4 c 14,0 19.6,6.8 22,12.4 3.6,8.8 2,16.4 -5.2,23.6 l -23.6,23.6 16.4,16 93.2,-92.8 -61.6,-61.2 c -1.6,-1.6 -1.6,-4 0,-5.6 1.6,-1.6 4,-1.6 5.6,0 l 61.6,61.2 c 1.6,1.6 2.4,3.6 2.4,5.6 0,2.8 -1.2,4.4 -2.4,5.6 l -93.2,92.8 c -2,2 -4.4,2.4 -5.6,2.4 -2,0 -4,-0.8 -5.6,-2.4 l -16.4,-16.4 c -1.6,-1.6 -2.4,-3.2 -2.4,-5.6 0,-2 0.8,-4 2.4,-5.6 l 23.6,-23.6 c 4.8,-4.8 6,-9.2 3.6,-14.8 -2,-4.8 -6.8,-7.6 -14.4,-7.6 h -66.4 c -4.8,0 -8,0 -10.4,2.4 l -183.2,182 c -3.2,2.8 -9.2,8 -15.6,8 z"
   id="path22" />
</svg>
